<?xml version="1.0" encoding="utf-8"?>
<!-- Generator: Adobe Illustrator 26.0.2, SVG Export Plug-In . SVG Version: 6.00 Build 0)  -->
<svg version="1.1" xmlns="http://www.w3.org/2000/svg" xmlns:xlink="http://www.w3.org/1999/xlink" x="0px" y="0px"
	 viewBox="0 0 987.8 297.2" style="enable-background:new 0 0 987.8 297.2;" xml:space="preserve">
<style type="text/css">
	.st0{fill:#FFFFFF;}
	.st1{fill:#F9F9F9;}
	.st2{fill:#606060;}
	.st3{fill:#152C35;}
	.st4{fill:none;stroke:#000000;stroke-width:0.8085;stroke-miterlimit:10;}
	.st5{fill:none;stroke:#000000;stroke-miterlimit:10;}
	.st6{fill:none;stroke:#000000;stroke-width:0.7055;stroke-miterlimit:10;}
	.st7{fill:none;stroke:#000000;stroke-width:1.2337;stroke-miterlimit:10;}
	.st8{fill:none;stroke:#000000;stroke-width:0.6291;stroke-miterlimit:10;}
	.st9{fill:none;stroke:#FFFFFF;stroke-width:1.2264;stroke-miterlimit:10;}
	.st10{fill:none;stroke:#FFFFFF;stroke-width:2.4051;stroke-miterlimit:10;}
</style>
<g id="Layer_1">
	<g>
		<path class="st0" d="M71.1,262.1c-0.7-2.1-1.3-4.4-1.9-6.8c-0.3-1.4-0.7-2.8-1-4.2c-0.3,1.4-0.6,2.8-0.9,4.2
			c-0.6,2.4-1.1,4.7-1.8,6.8l-0.4,1.3h6.4L71.1,262.1z M71.1,262.1c-0.7-2.1-1.3-4.4-1.9-6.8c-0.3-1.4-0.7-2.8-1-4.2
			c-0.3,1.4-0.6,2.8-0.9,4.2c-0.6,2.4-1.1,4.7-1.8,6.8l-0.4,1.3h6.4L71.1,262.1z M71.1,262.1c-0.7-2.1-1.3-4.4-1.9-6.8
			c-0.3-1.4-0.7-2.8-1-4.2c-0.3,1.4-0.6,2.8-0.9,4.2c-0.6,2.4-1.1,4.7-1.8,6.8l-0.4,1.3h6.4L71.1,262.1z M71.1,262.1
			c-0.7-2.1-1.3-4.4-1.9-6.8c-0.3-1.4-0.7-2.8-1-4.2c-0.3,1.4-0.6,2.8-0.9,4.2c-0.6,2.4-1.1,4.7-1.8,6.8l-0.4,1.3h6.4L71.1,262.1z
			 M71.1,262.1c-0.7-2.1-1.3-4.4-1.9-6.8c-0.3-1.4-0.7-2.8-1-4.2c-0.3,1.4-0.6,2.8-0.9,4.2c-0.6,2.4-1.1,4.7-1.8,6.8l-0.4,1.3h6.4
			L71.1,262.1z M71.1,262.1c-0.7-2.1-1.3-4.4-1.9-6.8c-0.3-1.4-0.7-2.8-1-4.2c-0.3,1.4-0.6,2.8-0.9,4.2c-0.6,2.4-1.1,4.7-1.8,6.8
			l-0.4,1.3h6.4L71.1,262.1z M0,0.9v295h295V0.9H0z M154.5,21.2l24,41.5h-8.6v41.6l60-59.1h43.9l-94.5,93h-37.6v0h-2.5V62.7h-8.6
			L154.5,21.2z M245.7,103.2h8l2.8,4.4c0.6,0.9,1.1,1.8,1.4,2.6c0.4,0.8,0.7,1.5,1,2.3c0,0.1,0.1,0.1,0.1,0.1c0,0,0.1-0.1,0.1-0.1
			c0.3-0.7,0.7-1.5,1.1-2.3c0.4-0.8,0.9-1.7,1.5-2.6l2.9-4.4h7.8l-9.3,14.1l10.4,15.2h-8.2l-3.7-5.6c-0.5-0.8-1-1.6-1.3-2.1
			c-0.3-0.6-0.6-1.1-0.8-1.6c-0.1-0.2-0.2-0.5-0.4-0.7c-0.1,0.2-0.2,0.5-0.4,0.7c-0.2,0.5-0.5,1-0.9,1.6c-0.3,0.6-0.8,1.3-1.3,2.1
			l-3.8,5.6h-8l10.5-15L245.7,103.2z M104.1,21.5h6.9v18.3c0,1,0.2,1.9,0.7,2.7c0.5,0.8,1.1,1.4,1.9,1.9c0.8,0.4,1.8,0.7,2.8,0.7
			c1.1,0,2-0.2,2.8-0.7c0.8-0.5,1.4-1.1,1.9-1.9c0.5-0.8,0.7-1.7,0.7-2.7V21.5h6.9v18.9c0,2.2-0.5,4.1-1.5,5.7
			c-1,1.6-2.5,2.9-4.3,3.8c-1.9,0.9-4,1.3-6.5,1.3s-4.6-0.4-6.5-1.3c-1.9-0.9-3.3-2.1-4.3-3.8c-1-1.6-1.5-3.5-1.5-5.7V21.5z
			 M19.9,142.5h93.6l-31.2,30.7H19.9V142.5z M75.1,274.9l-2-6.2h-9.8l-1.9,6.2h-7.7l9.8-29.3h9.3l10.1,29.3H75.1z M159.3,275.2
			h-30.8v-98.8L77.1,227l6,6.1l-46.4,12L49.5,199l6,6.1l63.8-62.7h40V275.2z M232.3,181.8v-8.6h-68.8v-30.7h68.8v-8.6l41.5,24
			L232.3,181.8z M69.1,255.3c-0.3-1.4-0.7-2.8-1-4.2c-0.3,1.4-0.6,2.8-0.9,4.2c-0.6,2.4-1.1,4.7-1.8,6.8l-0.4,1.3h6.4l-0.4-1.3
			C70.4,260,69.8,257.7,69.1,255.3z M71.1,262.1c-0.7-2.1-1.3-4.4-1.9-6.8c-0.3-1.4-0.7-2.8-1-4.2c-0.3,1.4-0.6,2.8-0.9,4.2
			c-0.6,2.4-1.1,4.7-1.8,6.8l-0.4,1.3h6.4L71.1,262.1z M71.1,262.1c-0.7-2.1-1.3-4.4-1.9-6.8c-0.3-1.4-0.7-2.8-1-4.2
			c-0.3,1.4-0.6,2.8-0.9,4.2c-0.6,2.4-1.1,4.7-1.8,6.8l-0.4,1.3h6.4L71.1,262.1z M71.1,262.1c-0.7-2.1-1.3-4.4-1.9-6.8
			c-0.3-1.4-0.7-2.8-1-4.2c-0.3,1.4-0.6,2.8-0.9,4.2c-0.6,2.4-1.1,4.7-1.8,6.8l-0.4,1.3h6.4L71.1,262.1z M71.1,262.1
			c-0.7-2.1-1.3-4.4-1.9-6.8c-0.3-1.4-0.7-2.8-1-4.2c-0.3,1.4-0.6,2.8-0.9,4.2c-0.6,2.4-1.1,4.7-1.8,6.8l-0.4,1.3h6.4L71.1,262.1z"
			/>
		<g>
			<path class="st0" d="M391.3,1.1h-25.9l-27.2,81.7h21.5l5.3-17.4h27.2l5.5,17.4h21.7L391.3,1.1z M369.5,50.6l1.1-3.5
				c1.7-5.9,3.3-12.2,4.9-18.9c0.9-3.8,1.8-7.7,2.7-11.7c1,3.9,1.9,7.8,2.9,11.6c1.7,6.7,3.5,13,5.3,19l1.1,3.5H369.5z"/>
			<path class="st0" d="M495.9,1.1v81.7h-21.3l-20.9-33.8c-1.9-3.1-3.6-6.1-5.1-8.8c-1.5-2.8-3-5.8-4.5-9c-0.8-1.8-1.7-3.7-2.7-5.9
				c0.1,2,0.3,3.9,0.4,5.8c0.2,3.7,0.4,7.1,0.6,10.2c0.1,3.1,0.2,5.6,0.2,7.7v33.8h-19.8V1.1h21.3L466.7,38c1.5,2.4,2.9,5,4.3,7.6
				c1.4,2.6,2.8,5.5,4.2,8.7c0.7,1.5,1.3,3.1,2,4.8c-0.1-1.2-0.2-2.5-0.3-3.8c-0.2-3.7-0.5-7.2-0.6-10.7c-0.2-3.4-0.3-6.4-0.3-8.7
				V1.1H495.9z"/>
			<path class="st0" d="M552.4,1.1h-25.9l-27.2,81.7h21.5l5.3-17.4h27.2l5.5,17.4h21.7L552.4,1.1z M530.6,50.6l1.1-3.5
				c1.7-5.9,3.4-12.2,4.9-18.9c0.9-3.8,1.8-7.7,2.7-11.7c1,3.9,1.9,7.8,2.9,11.6c1.7,6.7,3.5,13,5.3,19l1.1,3.5H530.6z"/>
			<path class="st0" d="M583.8,82.7V1.1h19.3V67h34.1v15.8H583.8z"/>
			<path class="st0" d="M675.5,83.8c-7.3,0-13.9-1.6-19.8-4.9c-5.9-3.3-10.5-8-13.9-14.2c-3.4-6.2-5.2-13.8-5.2-22.7
				c0-9,1.7-16.6,5.2-22.9c3.4-6.2,8.1-11,13.9-14.2c5.9-3.3,12.5-4.9,19.8-4.9c7.3,0,13.9,1.6,19.8,4.9c5.9,3.3,10.5,8,13.9,14.2
				c3.4,6.2,5.1,13.9,5.1,22.9c0,9-1.7,16.5-5.1,22.8c-3.4,6.2-8.1,11-13.9,14.2C689.4,82.2,682.8,83.8,675.5,83.8z M675.5,66.9
				c3.9,0,7.3-1,10.2-2.9c2.9-1.9,5-4.7,6.6-8.4c1.5-3.7,2.3-8.2,2.3-13.6c0-5.4-0.8-10-2.3-13.7c-1.5-3.7-3.7-6.5-6.6-8.4
				c-2.8-1.9-6.2-2.8-10.2-2.8c-4,0-7.4,1-10.2,2.9c-2.8,1.9-5,4.7-6.6,8.4c-1.5,3.7-2.3,8.3-2.3,13.7c0,5.4,0.8,9.9,2.3,13.6
				c1.5,3.7,3.7,6.5,6.6,8.4C668.1,65.9,671.5,66.9,675.5,66.9z"/>
			<path class="st0" d="M756.9,83.8c-7.7,0-14.6-1.7-20.4-5.1c-5.9-3.4-10.5-8.2-13.8-14.4c-3.3-6.2-5-13.7-5-22.2
				c0-8.9,1.7-16.5,5.2-22.8c3.5-6.3,8.2-11.1,14-14.4c5.9-3.3,12.4-5,19.7-5c4.7,0,9.1,0.7,13.1,2c4,1.4,7.6,3.3,10.8,5.8
				c3.2,2.5,5.7,5.4,7.7,8.8c2,3.4,3.2,7.1,3.7,11.2h-19.6c-0.5-1.7-1.2-3.2-2.1-4.5c-0.9-1.3-2-2.5-3.3-3.4
				c-1.3-0.9-2.8-1.6-4.5-2.1c-1.7-0.5-3.5-0.7-5.6-0.7c-3.9,0-7.4,1-10.3,2.9c-2.9,1.9-5.2,4.8-6.8,8.5c-1.6,3.7-2.4,8.2-2.4,13.5
				c0,5.3,0.8,9.8,2.3,13.5c1.6,3.7,3.8,6.6,6.7,8.5c2.9,2,6.4,3,10.5,3c3.7,0,6.8-0.6,9.3-1.8c2.5-1.2,4.5-2.9,5.8-5.2s2-4.9,2-7.9
				l3.7,0.5h-20V38.3h35V49c0,7.3-1.5,13.5-4.6,18.7c-3.1,5.2-7.3,9.2-12.7,12C770.1,82.5,763.9,83.8,756.9,83.8z"/>
			<path class="st0" d="M376.3,190.4c-6.9,0-12.9-1.2-18.1-3.7c-5.2-2.5-9.2-6-12.1-10.5c-2.9-4.5-4.3-9.8-4.3-15.9v-52.7h19.3v51.1
				c0,2.8,0.6,5.4,1.9,7.6c1.3,2.2,3,4,5.3,5.2c2.2,1.3,4.9,1.9,7.9,1.9s5.6-0.6,7.9-1.9s4.1-3,5.3-5.2c1.3-2.2,1.9-4.8,1.9-7.6
				v-51.1h19.3v52.7c0,6.1-1.4,11.4-4.3,15.9c-2.9,4.5-6.9,8-12.1,10.5C389.2,189.2,383.2,190.4,376.3,190.4z"/>
			<path class="st0" d="M449.4,190.5c-6.8,0-12.7-1-17.8-3.1c-5-2-9-5.2-11.8-9.3c-2.8-4.2-4.3-9.4-4.4-15.7h18.6
				c0.2,2.6,0.9,4.8,2.2,6.6c1.3,1.8,3,3.1,5.2,4c2.2,0.9,4.8,1.3,7.8,1.3c2.7,0,5-0.4,6.9-1.1c1.9-0.7,3.4-1.8,4.5-3.1
				c1-1.3,1.6-2.8,1.6-4.6c0-1.6-0.5-2.9-1.5-4c-1-1.1-2.4-2.1-4.4-2.9c-1.9-0.8-4.4-1.6-7.4-2.2l-8.7-2c-7.1-1.6-12.6-4.2-16.6-7.9
				c-4-3.7-6-8.5-6-14.7c0-5,1.4-9.5,4.1-13.3c2.7-3.8,6.5-6.7,11.3-8.9c4.8-2.1,10.2-3.2,16.4-3.2c6.3,0,11.8,1.1,16.4,3.2
				c4.6,2.1,8.2,5.1,10.8,8.9c2.6,3.8,3.9,8.2,3.9,13.3H462c-0.3-3-1.5-5.3-3.6-6.9c-2.2-1.6-5.2-2.5-9-2.5c-2.6,0-4.7,0.3-6.5,1
				s-3.1,1.6-3.9,2.8c-0.9,1.2-1.3,2.5-1.3,4.1c0,1.7,0.5,3.1,1.5,4.2c1,1.2,2.4,2.1,4.2,2.9c1.8,0.8,3.9,1.4,6.4,2l7.1,1.6
				c3.9,0.8,7.5,2,10.5,3.4c3.1,1.4,5.7,3.2,7.8,5.2c2.1,2,3.8,4.3,4.9,7c1.1,2.6,1.7,5.6,1.7,8.8c0,5.2-1.3,9.6-3.9,13.3
				c-2.6,3.7-6.3,6.5-11.1,8.5S456.2,190.5,449.4,190.5z"/>
			<path class="st0" d="M486.4,189.4v-81.7h56.7v15.8h-37.3v16.9h34.4v15.5h-34.4v17.8H543v15.8H486.4z"/>
			<path class="st0" d="M598.2,158.2C598.3,158.2,598.3,158.2,598.2,158.2c4.6-2.1,8.1-5.1,10.5-9c2.4-4,3.7-8.7,3.7-14.3
				c0-5.6-1.2-10.4-3.6-14.4c-2.4-4-5.8-7.2-10.3-9.4c-4.5-2.2-9.7-3.3-15.9-3.3h-33.4v81.7h19.3v-28.1h10.5l15,28.1h21.2
				L598.2,158.2z M578.6,146h-10v-22.6h10c3,0,5.6,0.4,7.6,1.3c2,0.9,3.6,2.1,4.6,3.8c1.1,1.7,1.6,3.8,1.6,6.4
				c0,2.5-0.5,4.6-1.6,6.2c-1,1.6-2.6,2.9-4.6,3.7C584.2,145.6,581.6,146,578.6,146z"/>
			<path class="st0" d="M341.9,296.1v-81.7h56.7v15.8h-37.3v16.9h34.4v15.5h-34.4v17.8h37.3v15.8H341.9z"/>
			<path class="st0" d="M439.7,265.6c0.5,0.9,1,1.7,1.4,2.5c0.4-0.8,0.9-1.7,1.4-2.5H439.7z"/>
			<path class="st0" d="M481.2,296.1h-23L448,280.4c-1.5-2.3-2.7-4.3-3.6-5.9c-0.9-1.6-1.7-3.1-2.3-4.4c-0.3-0.6-0.6-1.3-1-1.9
				c0.4-0.8,0.9-1.7,1.4-2.5h-2.8c0.5,0.9,1,1.7,1.4,2.5c-0.3,0.6-0.7,1.3-1,1.9c-0.7,1.4-1.5,2.9-2.4,4.5c-0.9,1.6-2.1,3.6-3.6,5.9
				l-10.6,15.6h-22.4l29.3-41.7L404,214.4h22.4l7.8,12.2c1.6,2.6,3,5,4,7.2c1.1,2.2,2,4.3,2.9,6.3c0.1,0.1,0.1,0.3,0.2,0.4
				c0.1-0.1,0.1-0.3,0.2-0.4c0.9-2,1.9-4.1,3-6.3c1.1-2.2,2.4-4.6,4.1-7.2l7.9-12.2h21.8l-26,39.3L481.2,296.1z"/>
			<path class="st0" d="M544.2,227.9c-2.4-4.2-5.8-7.5-10.3-9.9c-4.5-2.4-9.8-3.6-15.9-3.6h-33.4v81.7h19.3v-25.5h13.5
				c6.2,0,11.6-1.2,16.2-3.5c4.5-2.3,8-5.6,10.5-9.7c2.4-4.2,3.7-9.1,3.7-14.7C547.8,237,546.6,232.1,544.2,227.9z M526.2,249.3
				c-1,1.9-2.6,3.4-4.6,4.4c-2,1.1-4.6,1.6-7.6,1.6h-10v-25.2h10c3,0,5.6,0.5,7.6,1.5c2.1,1,3.6,2.5,4.6,4.4c1,1.9,1.5,4.1,1.5,6.7
				C527.7,245.2,527.2,247.4,526.2,249.3z"/>
			<path class="st0" d="M552.1,296.1v-81.7h56.7v15.8h-37.3v16.9h34.4v15.5h-34.4v17.8h37.3v15.8H552.1z"/>
			<path class="st0" d="M664,264.9C664,264.9,664,264.9,664,264.9c4.6-2.1,8.1-5.1,10.5-9c2.4-4,3.7-8.7,3.7-14.3
				c0-5.6-1.2-10.4-3.6-14.4c-2.4-4-5.8-7.2-10.3-9.4c-4.5-2.2-9.7-3.3-15.9-3.3H615v81.7h19.3v-28.1h10.5l15,28.1H681L664,264.9z
				 M644.3,252.7h-10v-22.6h10c3,0,5.6,0.4,7.6,1.3c2.1,0.9,3.6,2.1,4.6,3.8c1.1,1.7,1.6,3.8,1.6,6.4c0,2.5-0.5,4.6-1.6,6.2
				c-1,1.6-2.6,2.9-4.6,3.7C649.9,252.3,647.4,252.7,644.3,252.7z"/>
			<path class="st0" d="M703,214.4v81.7h-19.3v-81.7H703z"/>
			<path class="st0" d="M710.1,296.1v-81.7h56.7v15.8h-37.3v16.9h34.4v15.5h-34.4v17.8h37.3v15.8H710.1z"/>
			<path class="st0" d="M846.2,214.4v81.7h-21.3L804,262.2c-1.9-3.1-3.6-6-5.1-8.8c-1.5-2.8-3-5.8-4.5-9c-0.8-1.8-1.7-3.8-2.8-5.9
				c0.1,2,0.3,3.9,0.4,5.9c0.2,3.7,0.4,7.1,0.6,10.2c0.1,3.1,0.2,5.6,0.2,7.7v33.8H773v-81.7h21.3l22.8,36.9c1.5,2.4,2.9,5,4.3,7.6
				c1.4,2.6,2.8,5.5,4.2,8.7c0.7,1.5,1.3,3.1,2,4.8c-0.1-1.2-0.2-2.5-0.3-3.9c-0.2-3.7-0.5-7.2-0.6-10.7c-0.2-3.4-0.3-6.4-0.3-8.7
				v-34.7H846.2z"/>
			<path class="st0" d="M890,297.2c-7.3,0-13.9-1.6-19.8-4.9c-5.8-3.3-10.4-8-13.8-14.2c-3.4-6.2-5.1-13.8-5.1-22.7
				c0-9,1.7-16.6,5.1-22.9c3.4-6.2,8-11,13.9-14.2c5.8-3.3,12.4-4.9,19.6-4.9c4.9,0,9.4,0.7,13.5,2c4.1,1.3,7.8,3.3,11,5.8
				c3.2,2.6,5.8,5.7,7.8,9.4c2,3.7,3.3,7.9,3.9,12.7h-19.6c-0.3-2-0.9-3.8-1.8-5.4c-0.9-1.6-2-2.9-3.4-4.1c-1.4-1.1-3-2-4.8-2.6
				c-1.8-0.6-3.8-0.9-6-0.9c-4,0-7.4,1-10.3,3c-2.9,2-5.1,4.8-6.7,8.5c-1.6,3.7-2.3,8.2-2.3,13.5c0,5.4,0.8,10,2.4,13.7
				c1.6,3.7,3.8,6.5,6.7,8.4s6.3,2.8,10.2,2.8c2.2,0,4.2-0.3,6-0.9c1.8-0.6,3.4-1.4,4.8-2.6c1.4-1.1,2.5-2.5,3.5-4.1
				c0.9-1.6,1.5-3.4,1.9-5.4h19.6c-0.4,3.7-1.4,7.2-3.1,10.8c-1.7,3.5-4.1,6.7-7.2,9.6c-3.1,2.9-6.7,5.2-11,6.9
				C900.5,296.3,895.6,297.2,890,297.2z"/>
			<path class="st0" d="M931.1,296.1v-81.7h56.7v15.8h-37.3v16.9h34.4v15.5h-34.4v17.8h37.3v15.8H931.1z"/>
		</g>
	</g>
</g>
<g id="Layer_2">
</g>
<g id="Layer_3">
</g>
</svg>
