<?xml version="1.0" encoding="utf-8"?>
<!-- Generator: Adobe Illustrator 26.0.2, SVG Export Plug-In . SVG Version: 6.00 Build 0)  -->
<svg version="1.1" xmlns="http://www.w3.org/2000/svg" xmlns:xlink="http://www.w3.org/1999/xlink" x="0px" y="0px"
	 viewBox="0 0 253.9 254" style="enable-background:new 0 0 253.9 254;" xml:space="preserve">
<style type="text/css">
	.st0{fill:#FFFFFF;}
	.st1{fill:#F9F9F9;}
	.st2{fill:#606060;}
	.st3{fill:#152C35;}
	.st4{fill:none;stroke:#000000;stroke-width:0.8085;stroke-miterlimit:10;}
	.st5{fill:none;stroke:#000000;stroke-miterlimit:10;}
	.st6{fill:none;stroke:#000000;stroke-width:0.7055;stroke-miterlimit:10;}
	.st7{fill:none;stroke:#000000;stroke-width:1.2337;stroke-miterlimit:10;}
	.st8{fill:none;stroke:#000000;stroke-width:0.6291;stroke-miterlimit:10;}
	.st9{fill:none;stroke:#FFFFFF;stroke-width:1.2264;stroke-miterlimit:10;}
	.st10{fill:none;stroke:#FFFFFF;stroke-width:2.4051;stroke-miterlimit:10;}
</style>
<g id="Layer_1">
	<g>
		<g>
			<g>
				<g>
					<polygon points="139.4,121.2 139.4,254 108.7,254 108.7,155.2 57.2,205.8 63.2,212 16.9,224 29.6,177.8 35.6,183.9 99.4,121.2 
											"/>
				</g>
			</g>
		</g>
		<g>
			<g>
				<g>
					<polygon points="212.4,160.6 212.4,152 143.6,152 143.6,121.3 212.4,121.3 212.4,112.7 253.9,136.7 					"/>
				</g>
			</g>
		</g>
		<polygon points="93.6,121.3 62.3,152 0,152 0,121.3 		"/>
		<g>
			<polygon points="159.4,117.1 121.8,117.1 121.8,117.1 119.3,117.1 119.3,41.5 110.7,41.5 134.6,0 158.6,41.5 150,41.5 150,83.1 
				210,24 253.9,24 			"/>
		</g>
	</g>
</g>
<g id="Layer_2">
</g>
<g id="Layer_3">
</g>
</svg>
